# xmcd
#
# Track frame offsets: 
#        150
#        15396
#        36368
#        47741
#        60931
#        70981
#        83316
#        99233
#        116462
#        135146
#        151656
#        164950
#        178589
#        189827
#        204803
#        220402
#        231653
#        243841
#        261713
#        275007
#        290273
#        302154
#
# Disc length: 4233 seconds
#
# Revision: 1
# Processed by: cddbd v1.5.2PL0 Copyright (c) Steve Scherf et al.
# Submitted via: ExactAudioCopy v0.95b4
#
DISCID=2b108716
DTITLE=Various Artist - Snowflakes CD 2
DYEAR=1999
DGENRE=Big Band
TTITLE0=horst jankowski orchestra and singers - nightpeople only
TTITLE1=erwin lehn orchestra - burgess
TTITLE2=heinz kiessling orchestra - young sound
TTITLE3=pete jacques orchestra and singers - fanatico
TTITLE4=pete jacques orchestra and singers - round trip to rio
TTITLE5=horst jankowski orchestra and singers - das ist der morgen
TTITLE6=oscar peterson and orchestra - sunny
TTITLE7=george shearing and orchestra - amarylis
TTITLE8=sven asmussen and orchestra - danse de jeunes filles
TTITLE9=nelson riddle orchestra - uptown dance
TTITLE10=francy boland and orchestra - claudia
TTITLE11=jonny teupen and the gunter kallmann singers - by the willow 
TTITLE11=tree
TTITLE12=les brown orchestra - theme from airport 1975
TTITLE13=perry london orchestra - bernardo
TTITLE14=horst jankowski orchestra - running away
TTITLE15=the third wave - don´t ever go
TTITLE16=rosy singers - lonely love
TTITLE17=horst jankowski orchestra and singers - how short is the time
TTITLE17=to love
TTITLE18=pete jacques orchestra - wenn es nacht wird in paris
TTITLE19=the third wave - once there was a time
TTITLE20=ulla wiesner and the addy flor orchestra - dieses jahr
TTITLE21=horst jankowski orchestra and singers - so wie heut´
EXTD=YEAR: 1999
EXTT0=
EXTT1=
EXTT2=
EXTT3=
EXTT4=
EXTT5=
EXTT6=
EXTT7=
EXTT8=
EXTT9=
EXTT10=
EXTT11=
EXTT12=
EXTT13=
EXTT14=
EXTT15=
EXTT16=
EXTT17=
EXTT18=
EXTT19=
EXTT20=
EXTT21=
PLAYORDER=
